<?xml version="1.0" encoding="UTF-8"?><svg width="100%" height="100%" viewBox="0 0 610 630" preserveAspectRatio="xMidYMid" xmlns="http://www.w3.org/2000/svg">
<text x="325" y="40" text-anchor="middle">Night and Day</text>
<line x1="50" y1="400" x2="600" y2="400" style="stroke:rgb(0,0,0);stroke-width:1"/>
<line x1="50" y1="400" x2="50" y2="80" style="stroke:rgb(0,0,0);stroke-width:1"/>
<text x="30" y="400" text-anchor="middle">0%</text>
<text x="30" y="250" text-anchor="middle">50%</text>
<text x="30" y="100" text-anchor="middle">100%</text>
<line x1="50" y1="250" x2="600" y2="250" style="stroke:rgb(0,0,0);stroke-width:1" stroke-dasharray="8 4"/>
<line x1="50" y1="100" x2="600" y2="100" style="stroke:rgb(0,0,0);stroke-width:1" stroke-dasharray="8 4"/>
<rect x="50" y="316.66666666666663" width="100" height="83.33333333333337" style="fill:blue"/>
<rect x="200" y="383.3333333333333" width="100" height="16.666666666666686" style="fill:red"/>
<rect x="350" y="359.7014925373134" width="100" height="40.29850746268659" style="fill:green"/>
<rect x="500" y="395.5223880597015" width="100" height="4.477611940298516" style="fill:black"/>
<text x="100" y="306.66666666666663" text-anchor="middle">27.78%</text>
<text x="250" y="373.3333333333333" text-anchor="middle">5.56%</text>
<text x="400" y="349.7014925373134" text-anchor="middle">13.43%</text>
<text x="550" y="385.5223880597015" text-anchor="middle">1.49%</text>
<text x="50" y="470" text-anchor="left">Legend</text>
<rect x="50" y="490" width="20" height="20" style="fill:blue"/>
<text x="100" y="505" text-anchor="left">Verb Phrases with Adverb (% of all verb phrases)</text>
<rect x="50" y="530" width="20" height="20" style="fill:red"/>
<text x="100" y="545" text-anchor="left">Negated Verb Phrases (% of all verb phrases)</text>
<rect x="50" y="570" width="20" height="20" style="fill:green"/>
<text x="100" y="585" text-anchor="left">Noun Phrases with Adj (% of all noun phrases)</text>
<rect x="50" y="610" width="20" height="20" style="fill:black"/>
<text x="100" y="625" text-anchor="left">Negated Noun Phrases (% of all noun phrases)</text>
</svg>
