<?xml version="1.0" encoding="UTF-8"?><svg width="100%" height="100%" viewBox="0 0 610 630" preserveAspectRatio="xMidYMid" xmlns="http://www.w3.org/2000/svg">
<text x="325" y="40" text-anchor="middle">By The Time I Get To Arizona</text>
<line x1="50" y1="400" x2="600" y2="400" style="stroke:rgb(0,0,0);stroke-width:1"/>
<line x1="50" y1="400" x2="50" y2="80" style="stroke:rgb(0,0,0);stroke-width:1"/>
<text x="30" y="400" text-anchor="middle">0%</text>
<text x="30" y="250" text-anchor="middle">50%</text>
<text x="30" y="100" text-anchor="middle">100%</text>
<line x1="50" y1="250" x2="600" y2="250" style="stroke:rgb(0,0,0);stroke-width:1" stroke-dasharray="8 4"/>
<line x1="50" y1="100" x2="600" y2="100" style="stroke:rgb(0,0,0);stroke-width:1" stroke-dasharray="8 4"/>
<rect x="50" y="355.2631578947368" width="100" height="44.73684210526318" style="fill:blue"/>
<rect x="200" y="381.57894736842104" width="100" height="18.42105263157896" style="fill:red"/>
<rect x="350" y="357.7889447236181" width="100" height="42.2110552763819" style="fill:green"/>
<rect x="500" y="389.4472361809045" width="100" height="10.552763819095503" style="fill:black"/>
<text x="100" y="345.2631578947368" text-anchor="middle">14.91%</text>
<text x="250" y="371.57894736842104" text-anchor="middle">6.14%</text>
<text x="400" y="347.7889447236181" text-anchor="middle">14.07%</text>
<text x="550" y="379.4472361809045" text-anchor="middle">3.52%</text>
<text x="50" y="470" text-anchor="left">Legend</text>
<rect x="50" y="490" width="20" height="20" style="fill:blue"/>
<text x="100" y="505" text-anchor="left">Verb Phrases with Adverb (% of all verb phrases)</text>
<rect x="50" y="530" width="20" height="20" style="fill:red"/>
<text x="100" y="545" text-anchor="left">Negated Verb Phrases (% of all verb phrases)</text>
<rect x="50" y="570" width="20" height="20" style="fill:green"/>
<text x="100" y="585" text-anchor="left">Noun Phrases with Adj (% of all noun phrases)</text>
<rect x="50" y="610" width="20" height="20" style="fill:black"/>
<text x="100" y="625" text-anchor="left">Negated Noun Phrases (% of all noun phrases)</text>
</svg>
