<?xml version="1.0" encoding="UTF-8"?>
<svg xmlns="http://www.w3.org/2000/svg" width="100%" height="100%">
   <line x1="50"
         y1="400"
         x2="600"
         y2="400"
         style="stroke:rgb(0,0,0);stroke-width:1"/>
   <line x1="50"
         y1="400"
         x2="50"
         y2="80"
         style="stroke:rgb(0,0,0);stroke-width:1"/>
   <text x="30" y="400" text-anchor="middle">0%</text>
   <text x="30" y="250" text-anchor="middle">50%</text>
   <text x="30" y="100" text-anchor="middle">100%</text>
   <line x1="50"
         y1="250"
         x2="600"
         y2="250"
         style="stroke:rgb(0,0,0);stroke-width:1"
         stroke-dasharray="8 4"/>
   <line x1="50"
         y1="100"
         x2="600"
         y2="100"
         style="stroke:rgb(0,0,0);stroke-width:1"
         stroke-dasharray="8 4"/>
   <rect x="50"
         y="371.42857142857144"
         width="100"
         height="28.571428571428555"
         style="fill:blue"/>
   <rect x="200"
         y="342.8571428571429"
         width="100"
         height="57.14285714285711"
         style="fill:red"/>
   <rect x="350"
         y="353.84615384615387"
         width="100"
         height="46.15384615384613"
         style="fill:green"/>
   <rect x="500" y="400" width="100" height="0" style="fill:black"/>
   <text x="100" y="361.42857142857144" text-anchor="middle">9.52%</text>
   <text x="250" y="332.8571428571429" text-anchor="middle">19.05%</text>
   <text x="400" y="343.84615384615387" text-anchor="middle">15.38%</text>
   <text x="550" y="390" text-anchor="middle">0.00%</text>
   <text x="50" y="470" text-anchor="left">Legend</text>
   <rect x="50" y="490" width="20" height="20" style="fill:blue"/>
   <text x="100" y="505" text-anchor="left">Verb Phrases with Adverb (% of all verb phrases)</text>
   <rect x="50" y="530" width="20" height="20" style="fill:red"/>
   <text x="100" y="545" text-anchor="left">Negated Verb Phrases (% of all verb phrases)</text>
   <rect x="50" y="570" width="20" height="20" style="fill:green"/>
   <text x="100" y="585" text-anchor="left">Noun Phrases with Adj (% of all noun phrases)</text>
   <rect x="50" y="610" width="20" height="20" style="fill:black"/>
   <text x="100" y="625" text-anchor="left">Negated Noun Phrases (% of all noun phrases)</text>
</svg>
