<?xml version="1.0" encoding="UTF-8"?><svg width="100%" height="100%" xmlns="http://www.w3.org/2000/svg">
<text x="325" y="40" text-anchor="middle">A Change is Gonna Come</text>
<line x1="50" y1="400" x2="600" y2="400" style="stroke:rgb(0,0,0);stroke-width:1"/>
<line x1="50" y1="400" x2="50" y2="80" style="stroke:rgb(0,0,0);stroke-width:1"/>
<text x="30" y="400" text-anchor="middle">0%</text>
<text x="30" y="250" text-anchor="middle">50%</text>
<text x="30" y="100" text-anchor="middle">100%</text>
<line x1="50" y1="250" x2="600" y2="250" style="stroke:rgb(0,0,0);stroke-width:1" stroke-dasharray="8 4"/>
<line x1="50" y1="100" x2="600" y2="100" style="stroke:rgb(0,0,0);stroke-width:1" stroke-dasharray="8 4"/>
<rect x="50" y="277.27272727272725" width="100" height="122.72727272727275" style="fill:blue"/>
<rect x="200" y="359.0909090909091" width="100" height="40.90909090909088" style="fill:red"/>
<rect x="350" y="383.7837837837838" width="100" height="16.216216216216196" style="fill:green"/>
<rect x="500" y="400" width="100" height="0" style="fill:black"/>
<text x="100" y="267.27272727272725" text-anchor="middle">40.91%</text>
<text x="250" y="349.0909090909091" text-anchor="middle">13.64%</text>
<text x="400" y="373.7837837837838" text-anchor="middle">5.41%</text>
<text x="550" y="390" text-anchor="middle">0.00%</text>
<text x="50" y="470" text-anchor="left">Legend</text>
<rect x="50" y="490" width="20" height="20" style="fill:blue"/>
<text x="100" y="505" text-anchor="left">Verb Phrases with Adverb (% of all verb phrases)</text>
<rect x="50" y="530" width="20" height="20" style="fill:red"/>
<text x="100" y="545" text-anchor="left">Negated Verb Phrases (% of all verb phrases)</text>
<rect x="50" y="570" width="20" height="20" style="fill:green"/>
<text x="100" y="585" text-anchor="left">Noun Phrases with Adj (% of all noun phrases)</text>
<rect x="50" y="610" width="20" height="20" style="fill:black"/>
<text x="100" y="625" text-anchor="left">Negated Noun Phrases (% of all noun phrases)</text>
</svg>
