<?xml version="1.0" encoding="UTF-8"?><svg width="100%" height="100%" xmlns="http://www.w3.org/2000/svg">
<text x="325" y="40" text-anchor="middle">The Way You Look Tonight</text>
<line x1="50" y1="400" x2="600" y2="400" style="stroke:rgb(0,0,0);stroke-width:1"/>
<line x1="50" y1="400" x2="50" y2="80" style="stroke:rgb(0,0,0);stroke-width:1"/>
<text x="30" y="400" text-anchor="middle">0%</text>
<text x="30" y="250" text-anchor="middle">50%</text>
<text x="30" y="100" text-anchor="middle">100%</text>
<line x1="50" y1="250" x2="600" y2="250" style="stroke:rgb(0,0,0);stroke-width:1" stroke-dasharray="8 4"/>
<line x1="50" y1="100" x2="600" y2="100" style="stroke:rgb(0,0,0);stroke-width:1" stroke-dasharray="8 4"/>
<rect x="50" y="250" width="100" height="150" style="fill:blue"/>
<rect x="200" y="385" width="100" height="15" style="fill:red"/>
<rect x="350" y="353.125" width="100" height="46.875" style="fill:green"/>
<rect x="500" y="390.625" width="100" height="9.375" style="fill:black"/>
<text x="100" y="240" text-anchor="middle">50.00%</text>
<text x="250" y="375" text-anchor="middle">5.00%</text>
<text x="400" y="343.125" text-anchor="middle">15.62%</text>
<text x="550" y="380.625" text-anchor="middle">3.12%</text>
<text x="50" y="470" text-anchor="left">Legend</text>
<rect x="50" y="490" width="20" height="20" style="fill:blue"/>
<text x="100" y="505" text-anchor="left">Verb Phrases with Adverb (% of all verb phrases)</text>
<rect x="50" y="530" width="20" height="20" style="fill:red"/>
<text x="100" y="545" text-anchor="left">Negated Verb Phrases (% of all verb phrases)</text>
<rect x="50" y="570" width="20" height="20" style="fill:green"/>
<text x="100" y="585" text-anchor="left">Noun Phrases with Adj (% of all noun phrases)</text>
<rect x="50" y="610" width="20" height="20" style="fill:black"/>
<text x="100" y="625" text-anchor="left">Negated Noun Phrases (% of all noun phrases)</text>
</svg>
