<?xml version="1.0" encoding="UTF-8"?>
<svg xmlns="http://www.w3.org/2000/svg" width="100%" height="100%">
   <text x="325" y="40" text-anchor="middle">The Bourgeos Blues</text>
   <line x1="50"
         y1="400"
         x2="600"
         y2="400"
         style="stroke:rgb(0,0,0);stroke-width:1"/>
   <line x1="50"
         y1="400"
         x2="50"
         y2="80"
         style="stroke:rgb(0,0,0);stroke-width:1"/>
   <text x="30" y="400" text-anchor="middle">0%</text>
   <text x="30" y="250" text-anchor="middle">50%</text>
   <text x="30" y="100" text-anchor="middle">100%</text>
   <line x1="50"
         y1="250"
         x2="600"
         y2="250"
         style="stroke:rgb(0,0,0);stroke-width:1"
         stroke-dasharray="8 4"/>
   <line x1="50"
         y1="100"
         x2="600"
         y2="100"
         style="stroke:rgb(0,0,0);stroke-width:1"
         stroke-dasharray="8 4"/>
   <rect x="50"
         y="344.44444444444446"
         width="100"
         height="55.55555555555554"
         style="fill:blue"/>
   <rect x="200"
         y="366.6666666666667"
         width="100"
         height="33.333333333333314"
         style="fill:red"/>
   <rect x="350"
         y="311.3636363636364"
         width="100"
         height="88.63636363636363"
         style="fill:green"/>
   <rect x="500"
         y="379.54545454545456"
         width="100"
         height="20.45454545454544"
         style="fill:black"/>
   <text x="100" y="334.44444444444446" text-anchor="middle">18.52%</text>
   <text x="250" y="356.6666666666667" text-anchor="middle">11.11%</text>
   <text x="400" y="301.3636363636364" text-anchor="middle">29.55%</text>
   <text x="550" y="369.54545454545456" text-anchor="middle">6.82%</text>
   <text x="50" y="470" text-anchor="left">Legend</text>
   <rect x="50" y="490" width="20" height="20" style="fill:blue"/>
   <text x="100" y="505" text-anchor="left">Verb Phrases with Adverb (% of all verb phrases)</text>
   <rect x="50" y="530" width="20" height="20" style="fill:red"/>
   <text x="100" y="545" text-anchor="left">Negated Verb Phrases (% of all verb phrases)</text>
   <rect x="50" y="570" width="20" height="20" style="fill:green"/>
   <text x="100" y="585" text-anchor="left">Noun Phrases with Adj (% of all noun phrases)</text>
   <rect x="50" y="610" width="20" height="20" style="fill:black"/>
   <text x="100" y="625" text-anchor="left">Negated Noun Phrases (% of all noun phrases)</text>
</svg>
