<?xml version="1.0" encoding="UTF-8"?>
<svg xmlns="http://www.w3.org/2000/svg" width="100%" height="100%">
   <text x="325" y="40" text-anchor="middle">CHEEK TO CHEEK</text>
   <line x1="50"
         y1="400"
         x2="600"
         y2="400"
         style="stroke:rgb(0,0,0);stroke-width:1"/>
   <line x1="50"
         y1="400"
         x2="50"
         y2="80"
         style="stroke:rgb(0,0,0);stroke-width:1"/>
   <text x="30" y="400" text-anchor="middle">0%</text>
   <text x="30" y="250" text-anchor="middle">50%</text>
   <text x="30" y="100" text-anchor="middle">100%</text>
   <line x1="50"
         y1="250"
         x2="600"
         y2="250"
         style="stroke:rgb(0,0,0);stroke-width:1"
         stroke-dasharray="8 4"/>
   <line x1="50"
         y1="100"
         x2="600"
         y2="100"
         style="stroke:rgb(0,0,0);stroke-width:1"
         stroke-dasharray="8 4"/>
   <rect x="50"
         y="373.52941176470586"
         width="100"
         height="26.470588235294144"
         style="fill:blue"/>
   <rect x="200"
         y="382.3529411764706"
         width="100"
         height="17.64705882352939"
         style="fill:red"/>
   <rect x="350"
         y="393.8775510204082"
         width="100"
         height="6.122448979591809"
         style="fill:green"/>
   <rect x="500" y="400" width="100" height="0" style="fill:black"/>
   <text x="100" y="363.52941176470586" text-anchor="middle">8.82%</text>
   <text x="250" y="372.3529411764706" text-anchor="middle">5.88%</text>
   <text x="400" y="383.8775510204082" text-anchor="middle">2.04%</text>
   <text x="550" y="390" text-anchor="middle">0.00%</text>
   <text x="50" y="470" text-anchor="left">Legend</text>
   <rect x="50" y="490" width="20" height="20" style="fill:blue"/>
   <text x="100" y="505" text-anchor="left">Verb Phrases with Adverb (% of all verb phrases)</text>
   <rect x="50" y="530" width="20" height="20" style="fill:red"/>
   <text x="100" y="545" text-anchor="left">Negated Verb Phrases (% of all verb phrases)</text>
   <rect x="50" y="570" width="20" height="20" style="fill:green"/>
   <text x="100" y="585" text-anchor="left">Noun Phrases with Adj (% of all noun phrases)</text>
   <rect x="50" y="610" width="20" height="20" style="fill:black"/>
   <text x="100" y="625" text-anchor="left">Negated Noun Phrases (% of all noun phrases)</text>
</svg>
