<?xml version="1.0" encoding="UTF-8"?><svg width="100%" height="100%" viewBox="0 0 610 630" preserveAspectRatio="xMidYMid" xmlns="http://www.w3.org/2000/svg">
<text x="325" y="40" text-anchor="middle">Non-Protest</text>
<line x1="50" y1="400" x2="600" y2="400" style="stroke:rgb(0,0,0);stroke-width:1"/>
<line x1="50" y1="400" x2="50" y2="80" style="stroke:rgb(0,0,0);stroke-width:1"/>
<text x="30" y="400" text-anchor="middle">0%</text>
<text x="30" y="250" text-anchor="middle">50%</text>
<text x="30" y="100" text-anchor="middle">100%</text>
<line x1="50" y1="250" x2="600" y2="250" style="stroke:rgb(0,0,0);stroke-width:1" stroke-dasharray="8 4"/>
<line x1="50" y1="100" x2="600" y2="100" style="stroke:rgb(0,0,0);stroke-width:1" stroke-dasharray="8 4"/>
<rect x="50" y="315.28822055137846" width="100" height="84.71177944862154" style="fill:blue"/>
<rect x="200" y="377.4436090225564" width="100" height="22.556390977443584" style="fill:red"/>
<rect x="350" y="374.2857142857143" width="100" height="25.714285714285722" style="fill:green"/>
<rect x="500" y="395.96638655462186" width="100" height="4.033613445378137" style="fill:black"/>
<text x="100" y="305.28822055137846" text-anchor="middle">28.24%</text>
<text x="250" y="367.4436090225564" text-anchor="middle">7.52%</text>
<text x="400" y="364.2857142857143" text-anchor="middle">8.57%</text>
<text x="550" y="385.96638655462186" text-anchor="middle">1.34%</text>
<text x="50" y="470" text-anchor="left">Legend</text>
<rect x="50" y="490" width="20" height="20" style="fill:blue"/>
<text x="100" y="505" text-anchor="left">Verb Phrases with Adverb (% of all verb phrases)</text>
<rect x="50" y="530" width="20" height="20" style="fill:red"/>
<text x="100" y="545" text-anchor="left">Negated Verb Phrases (% of all verb phrases)</text>
<rect x="50" y="570" width="20" height="20" style="fill:green"/>
<text x="100" y="585" text-anchor="left">Noun Phrases with Adj (% of all noun phrases)</text>
<rect x="50" y="610" width="20" height="20" style="fill:black"/>
<text x="100" y="625" text-anchor="left">Negated Noun Phrases (% of all noun phrases)</text>
</svg>
